<?xml version="1.0" encoding="utf-8"?>
<!-- Generator: Adobe Illustrator 25.2.3, SVG Export Plug-In . SVG Version: 6.00 Build 0)  -->
<svg version="1.1" id="Capa_1" xmlns="http://www.w3.org/2000/svg" xmlns:xlink="http://www.w3.org/1999/xlink" x="0px" y="0px"
	 viewBox="0 0 612 792" style="enable-background:new 0 0 612 792;" xml:space="preserve">
<style type="text/css">
	.st0{fill:#E7E6E6;}
	.st1{fill:url(#SVGID_1_);}
	.st2{fill:url(#SVGID_2_);}
	.st3{fill:url(#SVGID_3_);}
	.st4{fill:#020203;}
</style>
<g>
	<circle class="st0" cx="306.5" cy="396" r="254.5"/>
	<g>
		<g>
			<linearGradient id="SVGID_1_" gradientUnits="userSpaceOnUse" x1="287.0604" y1="332.5436" x2="425.6718" y2="332.5436">
				<stop  offset="0" style="stop-color:#AB5C16"/>
				<stop  offset="0.4905" style="stop-color:#020203"/>
			</linearGradient>
			<path class="st1" d="M425.67,293.64c-0.6,4.47-1.66,8.84-3.12,13.11c-1.07,3.19-2.38,6.34-3.9,9.38
				c-3.69,7.4-8.6,14.34-14.59,20.69c-4.35,4.63-9.27,8.96-14.67,12.91c-8.62,6.34-18.48,11.73-29.27,16
				c-1.01,0.4-2.05,0.78-3.08,1.16c-0.33,0.14-0.68,0.26-1.01,0.38c-7.96,2.85-16.39,5.11-25.17,6.68
				c-1.03,0.18-2.07,0.36-3.12,0.52c-5.66,0.88-11.45,1.5-17.37,1.8c-1.21,0.06-2.42,0.1-3.63,0.14c-1.7,0.06-3.41,0.08-5.15,0.08
				c-0.82,0-1.64,0-2.44-0.04c-2.13,0-4.25-0.08-6.34-0.18c-1.93-0.1-3.84-0.24-5.74-0.4c0.8-1.78,1.66-3.55,2.54-5.31
				c0.6-1.22,1.23-2.45,1.89-3.67c0.37-0.7,0.74-1.42,1.13-2.13c0.39-0.7,0.78-1.42,1.17-2.13c0.86-1.52,1.74-3.05,2.63-4.53
				c0.64-1.06,1.29-2.13,1.93-3.15c1.05-1.66,2.11-3.31,3.22-4.91c2.24-3.35,4.58-6.56,7-9.66v-0.02c0.94-1.2,1.89-2.39,2.87-3.55
				c5.46-6.62,11.28-12.63,17.35-17.99c0.68-0.6,1.37-1.2,2.05-1.76c4.45-3.81,9.03-7.26,13.7-10.33c5.09-3.39,10.3-6.32,15.57-8.76
				c9.7-4.57,19.57-7.56,29.27-8.78c10.07-1.28,19.94-0.66,29.27,1.99c0.55,0.16,1.07,0.32,1.62,0.48
				C422.1,292.26,423.9,292.9,425.67,293.64z"/>
			<linearGradient id="SVGID_2_" gradientUnits="userSpaceOnUse" x1="287.0604" y1="426.0258" x2="425.6718" y2="426.0258">
				<stop  offset="0" style="stop-color:#AB5C16"/>
				<stop  offset="0.4905" style="stop-color:#020203"/>
			</linearGradient>
			<path class="st2" d="M287.06,387.13c0.6,4.47,1.66,8.84,3.12,13.11c1.07,3.19,2.38,6.34,3.9,9.38c3.69,7.4,8.6,14.34,14.59,20.69
				c4.35,4.63,9.27,8.96,14.67,12.91c8.62,6.34,18.48,11.73,29.27,16c1.01,0.4,2.05,0.78,3.08,1.16c0.33,0.14,0.68,0.26,1.01,0.38
				c7.96,2.85,16.39,5.11,25.17,6.68c1.03,0.18,2.07,0.36,3.12,0.52c5.66,0.88,11.45,1.5,17.37,1.8c1.21,0.06,2.42,0.1,3.63,0.14
				c1.7,0.06,3.41,0.08,5.15,0.08c0.82,0,1.64,0,2.44-0.04c2.13,0,4.25-0.08,6.34-0.18c1.93-0.1,3.84-0.24,5.74-0.4
				c-0.8-1.78-1.66-3.55-2.54-5.31c-0.6-1.22-1.23-2.45-1.89-3.67c-0.37-0.7-0.74-1.42-1.13-2.13c-0.39-0.7-0.78-1.42-1.17-2.13
				c-0.86-1.52-1.74-3.05-2.63-4.53c-0.64-1.06-1.29-2.13-1.93-3.15c-1.05-1.66-2.11-3.31-3.22-4.91c-2.24-3.35-4.58-6.56-7-9.66
				v-0.02c-0.94-1.2-1.89-2.39-2.87-3.55c-5.46-6.62-11.28-12.63-17.35-17.99c-0.68-0.6-1.37-1.2-2.05-1.76
				c-4.45-3.81-9.03-7.26-13.7-10.33c-5.09-3.39-10.3-6.32-15.57-8.76c-9.7-4.57-19.57-7.56-29.27-8.78
				c-10.07-1.28-19.94-0.66-29.27,1.99c-0.55,0.16-1.07,0.32-1.62,0.48C290.63,385.74,288.84,386.38,287.06,387.13z"/>
		</g>
		<linearGradient id="SVGID_3_" gradientUnits="userSpaceOnUse" x1="187.7427" y1="336.3857" x2="433.6755" y2="336.3857">
			<stop  offset="0" style="stop-color:#AB5C16"/>
			<stop  offset="0.4905" style="stop-color:#020203"/>
		</linearGradient>
		<path class="st3" d="M433.68,204.27c-1.15,0.31-2.26,0.65-3.4,1c-0.1,0.03-0.24,0.07-0.34,0.1c-1.04,0.31-2.09,0.62-3.1,0.93
			c-1.31,0.38-2.63,0.79-3.94,1.24c-1.72,0.55-3.47,1.1-5.19,1.65c-0.88,0.31-1.75,0.58-2.59,0.89c-1.92,0.65-3.84,1.31-5.73,1.96
			c-0.54,0.21-1.08,0.38-1.62,0.58c-2.46,0.86-4.92,1.79-7.38,2.68c-2.66,1.03-5.36,2.06-8.02,3.09c-2.19,0.89-4.41,1.79-6.57,2.71
			c-3.07,1.24-6.07,2.51-9.06,3.81c-1.82,0.82-3.64,1.61-5.43,2.44c-4.89,2.2-9.67,4.47-14.39,6.8c-2.36,1.17-4.68,2.34-7.01,3.54
			c-2.43,1.24-4.85,2.51-7.25,3.78c-3.13,1.68-6.23,3.4-9.3,5.15l-14.66,8.69c-1.01,0.6-2.03,1.24-3.03,1.87
			c-0.37,0.24-23.38,15.93-23.69,16.13c-1.68,1.24-3.34,2.47-4.95,3.75c-2.63,1.99-5.19,4.02-7.68,6.08v186.82h-41.35V326.22
			c-0.94,1.37-1.82,2.71-2.66,4.05c-1.52,2.37-2.9,4.74-4.11,7.11c-0.67,1.31-1.31,2.54-1.89,3.81l-0.78,0.52h0.54
			c-0.84,1.89-1.58,3.75-2.29,5.6c-0.51,1.44-0.98,2.85-1.38,4.26c-0.24,0.86-0.47,1.72-0.67,2.54c-0.1,0.45-0.24,0.93-0.34,1.37
			c-1.28,6.05-1.35,11.58-0.34,16.56c0.07,0.34,0.13,0.72,0.2,1.07c0.88,3.71,2.32,7.11,4.38,10.21c-5.02-0.69-9.74-1.89-14.09-3.47
			c-0.17-0.07-0.34-0.14-0.51-0.21c-2.56-0.96-5.02-2.1-7.38-3.4c-3.88-2.16-7.38-4.74-10.51-7.73c-1.18-1.1-2.32-2.3-3.37-3.54
			c-0.07-0.1-0.1-0.17-0.13-0.27c-0.24-0.48-0.44-0.96-0.64-1.44c-2.19-4.88-3.54-10.07-4.04-15.5c-0.13-1.13-0.17-2.23-0.2-3.33
			c-0.07-1.75-0.03-3.54,0.07-5.33c0.07-1.2,0.2-2.47,0.34-3.68c0.07-0.58,0.13-1.13,0.24-1.72c0.13-0.89,0.27-1.75,0.47-2.68
			c0.37-1.92,0.84-3.85,1.42-5.81c1.15-3.99,2.7-8.04,4.62-12.13c1.01-2.13,2.12-4.3,3.37-6.46c0.24-0.45,0.47-0.89,0.77-1.37
			c0.64-1.1,1.31-2.2,2.02-3.3c1.72-2.71,3.57-5.43,5.63-8.18c1.15-1.51,2.33-3.02,3.57-4.54c1.04-1.24,2.09-2.47,3.17-3.75
			c3-3.44,6.27-6.84,9.64-10.14c0.03,0,0.03-0.03,0.03-0.03c0.94-0.86,1.89-1.75,2.83-2.65c1.25-1.17,2.49-2.3,3.81-3.44
			c0.67-0.62,1.31-1.2,2.02-1.79c1.52-1.27,3.03-2.54,4.58-3.81c0.54-0.41,1.08-0.86,1.62-1.27c0.4-0.34,0.81-0.65,1.25-1
			c3.47-2.71,7.08-5.36,10.78-7.9c2.32-1.62,4.72-3.2,7.14-4.78c2.22-1.41,4.45-2.82,6.74-4.16c2.46-1.51,4.99-2.96,7.55-4.36
			c0.77-0.45,1.55-0.86,2.36-1.31c1.38-0.76,2.8-1.51,4.21-2.23c4.68-2.47,9.47-4.81,14.32-7.01c0.44-0.21,0.84-0.38,1.25-0.58
			c4.38-1.96,8.8-3.85,13.28-5.6c2.97-1.17,5.96-2.27,9-3.37c1.89-0.69,3.81-1.34,5.69-1.99c4.92-1.68,9.87-3.2,14.86-4.6
			c1.62-0.45,3.27-0.93,4.92-1.34c2.29-0.62,4.58-1.2,6.87-1.75c1.08-0.24,2.16-0.52,3.24-0.72c4.48-1.07,8.93-1.96,13.38-2.75
			c0.61-0.1,1.21-0.21,1.85-0.31c0.61-0.1,1.18-0.21,1.79-0.31c4.55-0.76,9.07-1.41,13.58-1.92c5.26-0.58,10.45-1,15.6-1.27
			c0.94-0.07,1.85-0.1,2.76-0.14c1.85-0.07,3.71-0.1,5.56-0.14c2.53-0.07,5.05-0.03,7.51,0c2.19,0.07,4.31,0.14,6.47,0.24
			c2.22,0.1,4.45,0.27,6.6,0.45c1.01,0.07,2.02,0.17,3.03,0.31c0.37,0,0.71,0.03,1.08,0.07
			C431.65,204.03,432.66,204.13,433.68,204.27z"/>
	</g>
	<g>
		<path class="st4" d="M144.54,530.55v-2.62c1.19,0,2.43-0.1,3.72-0.31c0.6-0.1,1.03-0.28,1.28-0.51s0.44-0.68,0.56-1.33
			c0.15-0.89,0.27-4.18,0.38-9.87c0.06-4.04,0.09-8.16,0.09-12.36c0-8.26-0.03-12.47-0.08-12.63c-0.05-0.16-0.79-0.23-2.21-0.23
			c-2.9,0-5.4,0.08-7.49,0.25c-1.21,0.1-1.9,0.21-2.05,0.31c-0.16,0.1-0.28,0.29-0.36,0.55c-0.08,0.26-0.26,2.09-0.53,5.48h-2.69
			c0.04-3.99-0.06-7.43-0.31-10.31l0.34-0.25c6.56,0.31,12.95,0.47,19.16,0.47c6.19,0,13.11-0.16,20.78-0.47l0.34,0.5
			c-0.4,2.86-0.68,6.22-0.84,10.06h-2.59c-0.19-3.51-0.38-5.42-0.56-5.71c-0.15-0.23-0.48-0.39-1-0.47
			c-1.67-0.27-4.98-0.41-9.94-0.41c-0.42,0-0.67,0.06-0.75,0.19c-0.08,0.15-0.12,0.7-0.12,1.66l-0.19,21.02
			c0,6.09,0.05,9.83,0.16,11.21c0.11,1.39,0.36,2.22,0.75,2.52c0.27,0.19,1.92,0.41,4.93,0.66v2.62c-3.07-0.15-6.32-0.22-9.76-0.22
			C151.03,530.34,147.35,530.41,144.54,530.55z"/>
		<path class="st4" d="M204.42,524.52l0.9,0.91l-1.4,2.99c-1.5,0.93-3.11,1.63-4.83,2.1c-1.72,0.47-3.55,0.7-5.48,0.7
			c-4.54,0-8.12-1.32-10.74-3.96c-2.62-2.64-3.92-6.34-3.92-11.12c0-3.02,0.38-5.53,1.16-7.51c0.62-1.61,1.65-2.94,3.08-4
			c1.43-1.06,3.07-2.08,4.94-3.03c1.86-0.96,3.91-1.44,6.14-1.44c3.42,0,6.24,0.96,8.47,2.87c2.23,1.91,3.34,4.98,3.34,9.22
			c0,0.52-0.04,1.32-0.12,2.38l-5.12,0.94c-1.58,0.1-3.87,0.16-6.86,0.16h-6.77c0.31,3.59,1.38,6.3,3.22,8.12
			c1.83,1.82,4.17,2.73,7,2.73c1.19,0,2.37-0.17,3.53-0.52C202.11,525.69,203.27,525.19,204.42,524.52z M187.01,512.4
			c1.88,0.17,3.75,0.25,5.62,0.25c1.65,0,3.38-0.08,5.19-0.25l0.03-1.47c0-2.57-0.47-4.45-1.41-5.63c-0.94-1.18-2.21-1.77-3.81-1.77
			c-1.12,0-2.09,0.28-2.91,0.83s-1.42,1.33-1.81,2.34C187.52,507.7,187.21,509.6,187.01,512.4z"/>
		<path class="st4" d="M242.6,506.43h-5.19c0.29,1.02,0.44,1.97,0.44,2.85c0,3.84-1.37,6.7-4.1,8.58s-5.93,2.82-9.59,2.82
			c-0.58,0-1.44-0.04-2.56-0.12c-0.96,0.56-1.57,1.01-1.83,1.34s-0.39,0.71-0.39,1.12c0,1,0.7,1.6,2.09,1.81
			c0.77,0.12,5,0.19,12.69,0.19c2.58,0,4.37,0.22,5.36,0.67c0.99,0.45,1.81,1.25,2.45,2.39c0.65,1.15,0.97,2.62,0.97,4.44
			c0,4.19-1.66,7.7-4.97,10.53c-3.31,2.83-7.79,4.25-13.44,4.25c-4.79,0-8.37-0.84-10.72-2.52c-2.35-1.68-3.53-3.82-3.53-6.42
			c0-1.5,0.36-2.75,1.09-3.75c0.33-0.46,1.48-1.25,3.44-2.37l2.25-1.28c-1.69-0.33-2.81-0.78-3.38-1.33
			c-0.56-0.55-0.84-1.34-0.84-2.36c0-1.1,0.41-2.46,1.22-4.06l1.03-0.66c1.19-0.77,2.31-1.6,3.38-2.5
			c-2.38-0.85-4.11-2.01-5.16-3.47c-1.06-1.46-1.59-3.29-1.59-5.5c0-3.19,1.23-5.81,3.68-7.86c2.45-2.05,5.89-3.08,10.32-3.08
			c2.18,0,4.1,0.22,5.77,0.66c1.23,0.33,2.45,0.93,3.68,1.78c4.58,0.02,7.57-0.04,8.97-0.19l0.53,0.65
			C244.1,503.82,243.41,504.95,242.6,506.43z M220.51,531.34c-1.75,1.29-2.89,2.37-3.42,3.23c-0.53,0.86-0.8,1.84-0.8,2.95
			c0,2,0.78,3.63,2.34,4.87c1.56,1.24,3.86,1.86,6.91,1.86c2.19,0,4.05-0.34,5.59-1.03c1.54-0.69,2.7-1.64,3.47-2.85
			c0.77-1.21,1.16-2.56,1.16-4.04c0-1.36-0.31-2.51-0.94-3.45c-0.46-0.65-1.09-1.07-1.89-1.25c-0.8-0.19-3.12-0.28-6.95-0.28H220.51
			z M219.79,509.1c0,3.13,0.46,5.33,1.38,6.61c0.92,1.27,2.24,1.91,3.96,1.91c1.57,0,2.79-0.56,3.67-1.68
			c0.87-1.12,1.3-2.87,1.3-5.25c0-2.61-0.45-4.51-1.35-5.7c-0.9-1.19-2.17-1.79-3.8-1.79c-1.57,0-2.83,0.52-3.76,1.55
			S219.79,507.24,219.79,509.1z"/>
		<path class="st4" d="M272.01,524.52l0.9,0.91l-1.4,2.99c-1.5,0.93-3.11,1.63-4.83,2.1c-1.72,0.47-3.55,0.7-5.48,0.7
			c-4.54,0-8.12-1.32-10.74-3.96c-2.62-2.64-3.92-6.34-3.92-11.12c0-3.02,0.38-5.53,1.16-7.51c0.62-1.61,1.65-2.94,3.08-4
			c1.43-1.06,3.07-2.08,4.94-3.03c1.86-0.96,3.91-1.44,6.14-1.44c3.42,0,6.24,0.96,8.47,2.87c2.23,1.91,3.34,4.98,3.34,9.22
			c0,0.52-0.04,1.32-0.12,2.38l-5.12,0.94c-1.58,0.1-3.87,0.16-6.86,0.16h-6.77c0.31,3.59,1.38,6.3,3.22,8.12
			c1.83,1.82,4.17,2.73,7,2.73c1.19,0,2.37-0.17,3.53-0.52C269.71,525.69,270.86,525.19,272.01,524.52z M254.6,512.4
			c1.88,0.17,3.75,0.25,5.62,0.25c1.65,0,3.38-0.08,5.19-0.25l0.03-1.47c0-2.57-0.47-4.45-1.41-5.63c-0.94-1.18-2.21-1.77-3.81-1.77
			c-1.12,0-2.09,0.28-2.91,0.83s-1.42,1.33-1.81,2.34C255.11,507.7,254.81,509.6,254.6,512.4z"/>
		<path class="st4" d="M277.88,488.65v-1.81c2.96-0.4,5.29-0.8,7-1.22c1.71-0.42,3.55-1.01,5.53-1.78l0.81,0.69
			c-0.31,7.45-0.47,17.85-0.47,31.2c0,2.69,0.04,5.41,0.12,8.17c0.04,1.75,0.14,2.77,0.29,3.05c0.16,0.28,0.4,0.51,0.75,0.67
			c0.34,0.17,1.58,0.29,3.71,0.38v2.56l-3.28-0.09c-2.04-0.06-3.75-0.09-5.15-0.09l-9.33,0.19v-2.56l2.31-0.12
			c1.04-0.04,1.71-0.23,2.02-0.58c0.3-0.34,0.48-1.65,0.55-3.93c0.1-3.15,0.16-7.63,0.16-13.43l-0.03-13.36
			c-0.02-4.07-0.14-6.36-0.34-6.89c-0.08-0.25-0.24-0.44-0.47-0.56C281.69,488.89,280.3,488.73,277.88,488.65z"/>
		<path class="st4" d="M315.63,530.55v-2.62c2.56-0.19,3.99-0.35,4.3-0.5c0.23-0.1,0.4-0.24,0.5-0.41c0.21-0.29,0.38-0.92,0.5-1.88
			c0.23-1.65,0.36-4.69,0.38-9.12l0.03-11.78c0-3.75-0.06-6.88-0.17-9.41c-0.12-2.52-0.28-3.99-0.49-4.41
			c-0.12-0.27-0.33-0.48-0.63-0.62c-0.44-0.21-1.92-0.36-4.43-0.47v-2.62c3.77,0.15,7.13,0.22,10.08,0.22
			c3.54,0,6.89-0.07,10.05-0.22v2.62c-2.64,0.19-4.16,0.42-4.57,0.69c-0.41,0.27-0.66,0.93-0.74,1.97
			c-0.1,1.31-0.17,6.56-0.19,15.75h0.44c2.1-1.69,5.13-4.52,9.08-8.48c3.96-3.97,7.01-7.28,9.18-9.92l0.03-1.16l-0.03-1.16
			l0.28-0.31c2.27,0.15,4.2,0.22,5.81,0.22c1.69,0,3.58-0.07,5.68-0.22v2.62l-1.78,0.19c-1.42,0.15-2.33,0.3-2.75,0.47
			c-0.83,0.38-1.95,1.15-3.34,2.32c-2.08,1.73-4.71,4.11-7.9,7.12l-5.55,5.24l2.87,3.53c3.39,4.17,7.44,8.9,12.15,14.19
			c2.7,3.04,4.33,4.72,4.87,5.03c0.37,0.21,1.36,0.38,2.96,0.5v2.62l-1.65-0.06l-5.56-0.16c-1.5,0-3.43,0.07-5.81,0.22
			c-1.69-2.17-4.54-5.63-8.55-10.41c-3-3.58-5.86-6.83-8.59-9.75c-0.35-0.38-0.59-0.59-0.74-0.66c-0.12-0.04-0.25-0.06-0.37-0.06
			c-0.31,0-0.52,0.12-0.64,0.38c-0.06,0.17-0.09,1-0.09,2.5l0.12,9.47c0.04,2.77,0.16,4.37,0.34,4.78c0.12,0.29,0.33,0.5,0.62,0.62
			c0.42,0.19,1.88,0.35,4.41,0.5v2.62c-3.1-0.15-6.53-0.22-10.3-0.22C323.55,530.34,320.28,530.41,315.63,530.55z"/>
		<path class="st4" d="M365.76,515.7c0-4.94,1.16-8.65,3.47-11.14c2.77-2.94,6.77-4.41,12-4.41c5.21,0,9.01,1.18,11.41,3.54
			c2.4,2.36,3.59,6.08,3.59,11.17c0,5.23-1.38,9.27-4.14,12.11c-2.76,2.84-6.6,4.25-11.52,4.25c-4.83,0-8.51-1.32-11.03-3.97
			C367.02,524.59,365.76,520.74,365.76,515.7z M374.41,513.55c0,5.56,0.71,9.51,2.12,11.87c1.1,1.82,2.76,2.73,4.97,2.73
			c1.94,0,3.43-0.77,4.48-2.32c1.05-1.54,1.58-4.35,1.58-8.43c0-5.6-0.65-9.47-1.94-11.62c-1.06-1.71-2.72-2.57-4.97-2.57
			c-1.94,0-3.46,0.78-4.58,2.35C374.97,507.13,374.41,509.79,374.41,513.55z"/>
		<path class="st4" d="M400.57,530.55v-2.56c2.27-0.12,3.55-0.31,3.84-0.55c0.29-0.24,0.47-0.78,0.53-1.61
			c0.12-2.11,0.19-5.82,0.19-11.14c0-2.63-0.04-4.89-0.12-6.79c-0.04-1.17-0.12-1.86-0.25-2.07c-0.1-0.17-0.27-0.29-0.5-0.38
			c-0.23-0.08-1.46-0.16-3.69-0.22v-2.41c1.13,0,2.89-0.24,5.28-0.73c2.39-0.49,4.4-1.04,6.03-1.68l0.85-0.29
			c0.29,0,0.44,0.24,0.44,0.72l-0.03,0.28c-0.06,0.58-0.09,2.08-0.09,4.5l4.84-4.06c0.6-0.52,1.23-0.88,1.87-1.06
			c0.92-0.25,2.03-0.38,3.34-0.38c2.2,0,4.01,0.38,5.41,1.14s2.43,1.82,3.09,3.16c0.65,1.35,0.98,3.44,0.98,6.28
			c0,1.25-0.03,2.71-0.09,4.35c-0.1,3.38-0.16,6.31-0.16,8.77c0,1.4,0.11,2.37,0.34,2.91c0.17,0.38,0.4,0.63,0.7,0.75
			c0.3,0.13,1.44,0.28,3.42,0.47v2.56l-3.84-0.12l-2.47-0.06l-6.44,0.19l-0.34-0.41c0.54-3.96,0.81-8.03,0.81-12.2
			c0-5.3-0.32-8.56-0.97-9.79c-0.83-1.58-2.35-2.38-4.56-2.38c-1.42,0-2.65,0.36-3.69,1.08c-1.04,0.72-1.72,1.49-2.03,2.3
			c-0.15,0.33-0.22,1.39-0.22,3.17c0,7.56,0.03,11.89,0.09,12.99c0.06,1.1,0.24,1.77,0.53,2.02c0.38,0.31,1.77,0.53,4.19,0.66v2.56
			c-3.62-0.12-6.69-0.19-9.19-0.19C407.18,530.37,404.49,530.43,400.57,530.55z"/>
		<path class="st4" d="M443.54,520.43c0.1,2.69,0.24,4.19,0.41,4.5c0.46,0.85,1.31,1.6,2.57,2.25c1.26,0.65,2.72,0.97,4.38,0.97
			c2.04,0,3.56-0.42,4.57-1.26c1.01-0.84,1.51-1.96,1.51-3.34c0-1.2-0.37-2.14-1.09-2.84c-0.73-0.69-2.29-1.29-4.69-1.81
			c-3.62-0.79-5.98-1.48-7.08-2.08s-1.96-1.47-2.61-2.64c-0.65-1.17-0.97-2.56-0.97-4.19c0-1.92,0.48-3.61,1.44-5.09
			c0.96-1.48,2.33-2.64,4.13-3.48c1.8-0.84,4.18-1.27,7.13-1.27c3.08,0,5.94,0.5,8.58,1.5c-0.28,1.69-0.46,4.33-0.56,7.91h-2.47
			c-0.12-2.25-0.3-3.57-0.53-3.97c-0.31-0.6-0.91-1.11-1.78-1.53c-1.21-0.56-2.5-0.84-3.88-0.84c-1.75,0-3.11,0.39-4.08,1.17
			s-1.45,1.76-1.45,2.94c0,1.1,0.44,1.97,1.31,2.62c0.88,0.67,2.96,1.3,6.25,1.9c2.27,0.42,3.84,0.8,4.72,1.16
			c1.46,0.63,2.57,1.54,3.33,2.74c0.76,1.2,1.14,2.72,1.14,4.55c0,3.53-1.36,6.23-4.09,8.11c-2.73,1.88-5.97,2.82-9.74,2.82
			c-1.25,0-2.63-0.14-4.15-0.43c-1.52-0.29-3.17-0.71-4.96-1.27l-0.47-0.53c0.25-1.81,0.41-4.66,0.47-8.55H443.54z"/>
		<path class="st4" d="M467.01,505.43l4.16-2.72c-0.05-3.69-0.15-6.92-0.31-9.69c2.84-0.88,5.53-1.94,8.06-3.19l0.94,0.72
			c-0.46,3.02-0.77,7.07-0.94,12.16c0.96,0.17,1.91,0.25,2.84,0.25c2.12,0,4.03-0.15,5.72-0.44l0.28,0.19l-0.28,1.12
			c-0.31,1.17-0.54,2.24-0.69,3.22c-2.44-0.17-4.23-0.25-5.38-0.25c-0.85,0-1.69,0.04-2.5,0.12c-0.04,2.11-0.06,3.96-0.06,5.57
			c0,7.01,0.21,11,0.62,11.96c0.42,0.96,1.41,1.44,2.97,1.44c0.46,0,0.95-0.05,1.48-0.16c0.53-0.1,1.1-0.25,1.7-0.44l0.53,1.19
			c-1.25,1.4-2.47,2.84-3.66,4.34c-0.77,0.12-1.48,0.22-2.12,0.28c-0.65,0.06-1.24,0.09-1.78,0.09c-1.75,0-3.21-0.3-4.39-0.91
			c-1.18-0.6-2.03-1.39-2.56-2.35s-0.8-2.39-0.8-4.29c0-1,0.05-3.63,0.16-7.88c0.1-3.73,0.16-6.69,0.16-8.86l-1.59-0.06
			c-0.67,0-1.52,0.06-2.56,0.19V505.43z"/>
	</g>
</g>
</svg>
