<?xml version="1.0" encoding="utf-8"?>
<!-- Generator: Adobe Illustrator 25.2.3, SVG Export Plug-In . SVG Version: 6.00 Build 0)  -->
<svg version="1.1" id="Capa_1" xmlns="http://www.w3.org/2000/svg" xmlns:xlink="http://www.w3.org/1999/xlink" x="0px" y="0px"
	 viewBox="0 0 440 460" style="enable-background:new 0 0 440 460;" xml:space="preserve">
<style type="text/css">
	.st0{fill:url(#SVGID_1_);}
	.st1{fill:url(#SVGID_2_);}
	.st2{fill:url(#SVGID_3_);}
</style>
<g>
	<g>
		
			<linearGradient id="SVGID_1_" gradientUnits="userSpaceOnUse" x1="182.891" y1="237.4606" x2="397.1122" y2="237.4606" gradientTransform="matrix(1 0 0 -1 0 450)">
			<stop  offset="0" style="stop-color:#AB5C16"/>
			<stop  offset="0.4905" style="stop-color:#020203"/>
		</linearGradient>
		<path class="st0" d="M397.11,152.45c-0.93,6.91-2.57,13.66-4.82,20.26c-1.65,4.93-3.68,9.8-6.03,14.5
			c-5.7,11.44-13.29,22.16-22.55,31.98c-6.72,7.16-14.33,13.85-22.67,19.95c-13.32,9.8-28.56,18.13-45.24,24.73
			c-1.56,0.62-3.17,1.21-4.76,1.79c-0.51,0.22-1.05,0.4-1.56,0.59c-12.3,4.4-25.33,7.9-38.9,10.32c-1.59,0.28-3.2,0.56-4.82,0.8
			c-8.75,1.36-17.7,2.32-26.85,2.78c-1.87,0.09-3.74,0.15-5.61,0.22c-2.63,0.09-5.27,0.12-7.96,0.12c-1.27,0-2.53,0-3.77-0.06
			c-3.29,0-6.57-0.12-9.8-0.28c-2.98-0.15-5.94-0.37-8.87-0.62c1.24-2.75,2.57-5.49,3.93-8.21c0.93-1.89,1.9-3.79,2.92-5.67
			c0.57-1.08,1.14-2.19,1.75-3.29c0.6-1.08,1.21-2.19,1.81-3.29c1.33-2.35,2.69-4.71,4.06-7c0.99-1.64,1.99-3.29,2.98-4.87
			c1.62-2.57,3.26-5.12,4.98-7.59c3.46-5.18,7.08-10.14,10.82-14.93v-0.03c1.45-1.85,2.92-3.69,4.44-5.49
			c8.44-10.23,17.43-19.52,26.82-27.81c1.05-0.93,2.12-1.85,3.17-2.72c6.88-5.89,13.96-11.22,21.17-15.97
			c7.87-5.24,15.92-9.77,24.07-13.54c14.99-7.06,30.25-11.68,45.24-13.57c15.56-1.98,30.82-1.02,45.24,3.08
			c0.85,0.25,1.65,0.49,2.5,0.74C391.59,150.31,394.38,151.3,397.11,152.45z"/>
		
			<linearGradient id="SVGID_2_" gradientUnits="userSpaceOnUse" x1="182.8755" y1="92.9618" x2="397.0967" y2="92.9618" gradientTransform="matrix(1 0 0 -1 0 450)">
			<stop  offset="0" style="stop-color:#AB5C16"/>
			<stop  offset="0.4905" style="stop-color:#020203"/>
		</linearGradient>
		<path class="st1" d="M182.88,296.95c0.93,6.91,2.57,13.66,4.82,20.26c1.65,4.93,3.68,9.8,6.03,14.5
			c5.7,11.44,13.29,22.16,22.55,31.98c6.72,7.16,14.33,13.85,22.67,19.95c13.32,9.8,28.56,18.13,45.24,24.73
			c1.56,0.62,3.17,1.21,4.76,1.79c0.51,0.22,1.05,0.4,1.56,0.59c12.3,4.4,25.33,7.9,38.9,10.32c1.59,0.28,3.2,0.56,4.82,0.8
			c8.75,1.36,17.7,2.32,26.85,2.78c1.87,0.09,3.74,0.15,5.61,0.22c2.63,0.09,5.27,0.12,7.96,0.12c1.27,0,2.53,0,3.77-0.06
			c3.29,0,6.57-0.12,9.8-0.28c2.98-0.15,5.94-0.37,8.87-0.62c-1.24-2.75-2.57-5.49-3.93-8.21c-0.93-1.89-1.9-3.79-2.92-5.67
			c-0.57-1.08-1.14-2.19-1.75-3.29c-0.6-1.08-1.21-2.19-1.81-3.29c-1.33-2.35-2.69-4.71-4.06-7c-0.99-1.64-1.99-3.29-2.98-4.87
			c-1.62-2.57-3.26-5.12-4.98-7.59c-3.46-5.18-7.08-10.14-10.82-14.93v-0.03c-1.45-1.85-2.92-3.69-4.44-5.49
			c-8.44-10.23-17.43-19.52-26.82-27.81c-1.05-0.93-2.12-1.85-3.17-2.72c-6.88-5.89-13.96-11.22-21.17-15.97
			c-7.87-5.24-15.92-9.77-24.07-13.54c-14.99-7.06-30.25-11.68-45.24-13.57c-15.56-1.98-30.82-1.02-45.24,3.08
			c-0.85,0.25-1.65,0.49-2.5,0.74C188.39,294.8,185.63,295.79,182.88,296.95z"/>
	</g>
	
		<linearGradient id="SVGID_3_" gradientUnits="userSpaceOnUse" x1="29.3886" y1="231.5154" x2="409.4925" y2="231.5154" gradientTransform="matrix(1 0 0 -1 0 450)">
		<stop  offset="0" style="stop-color:#AB5C16"/>
		<stop  offset="0.4905" style="stop-color:#020203"/>
	</linearGradient>
	<path class="st2" d="M409.49,14.32c-1.78,0.48-3.49,1-5.26,1.55c-0.15,0.05-0.37,0.11-0.53,0.15c-1.61,0.48-3.23,0.96-4.79,1.44
		c-2.02,0.59-4.06,1.22-6.09,1.92c-2.66,0.85-5.36,1.7-8.02,2.55c-1.36,0.48-2.7,0.9-4,1.38c-2.97,1-5.94,2.02-8.86,3.03
		c-0.83,0.32-1.67,0.59-2.5,0.9c-3.8,1.33-7.6,2.77-11.41,4.14c-4.11,1.59-8.28,3.18-12.4,4.78c-3.38,1.38-6.82,2.77-10.15,4.19
		c-4.75,1.92-9.38,3.88-14,5.89c-2.81,1.27-5.63,2.49-8.39,3.77c-7.56,3.4-14.95,6.91-22.24,10.51c-3.65,1.81-7.23,3.62-10.83,5.47
		c-3.76,1.92-7.5,3.88-11.21,5.84c-4.84,2.6-9.63,5.26-14.37,7.96L231.78,93.2c-1.56,0.93-3.14,1.92-4.68,2.89
		c-0.57,0.37-36.14,24.62-36.62,24.93c-2.6,1.92-5.16,3.82-7.65,5.8c-4.06,3.08-8.02,6.21-11.87,9.4v288.75h-63.91V202.8
		c-1.45,2.12-2.81,4.19-4.11,6.26c-2.35,3.66-4.48,7.33-6.35,10.99c-1.04,2.02-2.02,3.93-2.92,5.89l-1.21,0.8h0.83
		c-1.3,2.92-2.44,5.8-3.54,8.66c-0.79,2.23-1.51,4.4-2.13,6.58c-0.37,1.33-0.73,2.66-1.04,3.93c-0.15,0.7-0.37,1.44-0.53,2.12
		c-1.98,9.35-2.09,17.9-0.53,25.6c0.11,0.53,0.2,1.11,0.31,1.65c1.36,5.73,3.59,10.99,6.77,15.78c-7.76-1.07-15.05-2.92-21.78-5.36
		c-0.26-0.11-0.53-0.22-0.79-0.32c-3.96-1.48-7.76-3.25-11.41-5.26c-6-3.34-11.41-7.33-16.24-11.95c-1.82-1.7-3.59-3.55-5.21-5.47
		c-0.11-0.15-0.15-0.26-0.2-0.42c-0.37-0.74-0.68-1.48-0.99-2.23c-3.38-7.54-5.47-15.56-6.24-23.96c-0.2-1.75-0.26-3.45-0.31-5.15
		c-0.11-2.7-0.05-5.47,0.11-8.24c0.11-1.85,0.31-3.82,0.53-5.69c0.11-0.9,0.2-1.75,0.37-2.66c0.2-1.38,0.42-2.7,0.73-4.14
		c0.57-2.97,1.3-5.95,2.19-8.98c1.78-6.17,4.17-12.43,7.14-18.75c1.56-3.29,3.28-6.65,5.21-9.98c0.37-0.7,0.73-1.38,1.19-2.12
		c0.99-1.7,2.02-3.4,3.12-5.1c2.66-4.19,5.52-8.39,8.7-12.64c1.78-2.33,3.6-4.67,5.52-7.02c1.61-1.92,3.23-3.82,4.9-5.8
		c4.64-5.32,9.69-10.57,14.9-15.67c0.05,0,0.05-0.05,0.05-0.05c1.45-1.33,2.92-2.7,4.37-4.1c1.93-1.81,3.85-3.55,5.89-5.32
		c1.04-0.96,2.02-1.85,3.12-2.77c2.35-1.96,4.68-3.93,7.08-5.89c0.83-0.63,1.67-1.33,2.5-1.96c0.62-0.53,1.25-1,1.93-1.55
		c5.36-4.19,10.94-8.28,16.66-12.21c3.59-2.5,7.3-4.95,11.04-7.39c3.43-2.18,6.88-4.36,10.42-6.43c3.8-2.33,7.71-4.58,11.67-6.74
		c1.19-0.7,2.4-1.33,3.65-2.02c2.13-1.17,4.33-2.33,6.51-3.45c7.23-3.82,14.64-7.43,22.13-10.83c0.68-0.32,1.3-0.59,1.93-0.9
		c6.77-3.03,13.6-5.95,20.53-8.66c4.59-1.81,9.21-3.51,13.91-5.21c2.92-1.07,5.89-2.07,8.79-3.08c7.6-2.6,15.26-4.95,22.97-7.11
		c2.5-0.7,5.05-1.44,7.6-2.07c3.54-0.96,7.08-1.85,10.62-2.7c1.67-0.37,3.34-0.8,5.01-1.11c6.92-1.65,13.8-3.03,20.68-4.25
		c0.94-0.15,1.87-0.32,2.86-0.48c0.94-0.15,1.82-0.32,2.77-0.48c7.03-1.17,14.02-2.18,20.99-2.97c8.13-0.9,16.15-1.55,24.11-1.96
		c1.45-0.11,2.86-0.15,4.27-0.22c2.86-0.11,5.73-0.15,8.59-0.22c3.91-0.11,7.81-0.05,11.61,0c3.38,0.11,6.66,0.22,10,0.37
		c3.43,0.15,6.88,0.42,10.2,0.7c1.56,0.11,3.12,0.26,4.68,0.48c0.57,0,1.1,0.05,1.67,0.11C406.35,13.95,407.92,14.1,409.49,14.32z"
		/>
</g>
</svg>
